<svg width="22" height="27" viewBox="0 0 22 27" fill="none" xmlns="http://www.w3.org/2000/svg">
<g filter="url(#filter0_d_45_592)">
<path d="M15.625 1.875H6.37915C5.68879 1.875 5.12915 2.43464 5.12915 3.125V15.8667C5.12915 16.557 5.68879 17.1167 6.37915 17.1167H15.625C16.3153 17.1167 16.875 16.557 16.875 15.8667V3.125C16.875 2.43464 16.3153 1.875 15.625 1.875Z" stroke="#101828" stroke-width="1.3" stroke-linecap="round" stroke-linejoin="round"/>
<path d="M5.12915 8.20416H16.8708M7.44582 6.60416V4.07916M7.44582 12.15V9.625M6.26665 17.1167V17.5542C6.26665 17.7048 6.32622 17.8494 6.43237 17.9563C6.53852 18.0633 6.68265 18.1239 6.83332 18.125H7.86248C8.01388 18.125 8.15907 18.0649 8.26612 17.9578C8.37318 17.8507 8.43332 17.7056 8.43332 17.5542V17.1167M13.5625 17.1167V17.5542C13.5625 17.7056 13.6226 17.8507 13.7297 17.9578C13.8367 18.0649 13.9819 18.125 14.1333 18.125H15.1667C15.318 18.125 15.4632 18.0649 15.5703 17.9578C15.6773 17.8507 15.7375 17.7056 15.7375 17.5542V17.1167" stroke="#101828" stroke-width="1.3" stroke-linecap="round" stroke-linejoin="round"/>
</g>
<defs>
<filter id="filter0_d_45_592" x="-3" y="0" width="28" height="28" filterUnits="userSpaceOnUse" color-interpolation-filters="sRGB">
<feFlood flood-opacity="0" result="BackgroundImageFix"/>
<feColorMatrix in="SourceAlpha" type="matrix" values="0 0 0 0 0 0 0 0 0 0 0 0 0 0 0 0 0 0 127 0" result="hardAlpha"/>
<feOffset dy="4"/>
<feGaussianBlur stdDeviation="2"/>
<feComposite in2="hardAlpha" operator="out"/>
<feColorMatrix type="matrix" values="0 0 0 0 0 0 0 0 0 0 0 0 0 0 0 0 0 0 0.25 0"/>
<feBlend mode="normal" in2="BackgroundImageFix" result="effect1_dropShadow_45_592"/>
<feBlend mode="normal" in="SourceGraphic" in2="effect1_dropShadow_45_592" result="shape"/>
</filter>
</defs>
</svg>
